PathFileType	4	(X/Y/Z)	/Users/mathieubourgeois/Desktop/Analyse/Traitement/Sujet_03/Transformed_Static_Sujet_03_Tpose.trc
DataRate	CameraRate	NumFrames	NumMarkers	Units	OrigDataRate	OrigDataStartFrame	OrigNumFrames
120.000000	120.000000	4	36	mm	120.000000	183	244
Frame#	Time	RFHD			LFHD			RBHD			LBHD			C7			CLAV			RSHO			LSHO			STRN			T10			RBWT			LBWT			RFWT			LFWT			RKNI			LKNI			RKNE			LKNE			LANI			RANI			LANE			RANE			LTOE			RTOE			LHEE			RHEE			RHUM			LHUM			RRAD			LRAD			RWRA			RWRB			LWRA			LWRB			RCAR			LCAR			
		X1	Y1	Z1	X2	Y2	Z2	X3	Y3	Z3	X4	Y4	Z4	X5	Y5	Z5	X6	Y6	Z6	X7	Y7	Z7	X8	Y8	Z8	X9	Y9	Z9	X10	Y10	Z10	X11	Y11	Z11	X12	Y12	Z12	X13	Y13	Z13	X14	Y14	Z14	X15	Y15	Z15	X16	Y16	Z16	X17	Y17	Z17	X18	Y18	Z18	X19	Y19	Z19	X20	Y20	Z20	X21	Y21	Z21	X22	Y22	Z22	X23	Y23	Z23	X24	Y24	Z24	X25	Y25	Z25	X26	Y26	Z26	X27	Y27	Z27	X28	Y28	Z28	X29	Y29	Z29	X30	Y30	Z30	X31	Y31	Z31	X32	Y32	Z32	X33	Y33	Z33	X34	Y34	Z34	X35	Y35	Z35	X36	Y36	Z36	

184	1.525	-729.4241943359375	1771.739624023438	307.9411315917966	-574.1854248046875	1767.536499023438	299.9771118164061	-736.297119140625	1734.213012695312	179.6161499023436	-588.4296875	1733.316040039062	154.9502868652342	-650.7041015625	1575.420288085938	140.8055877685545	-646.9653930664062	1504.6298828125	273.8734130859373	-803.3392944335938	1589.387939453125	166.9419860839842	-496.2086181640625	1593.695190429688	146.8242950439452	-644.4656982421875	1337.104858398438	319.6182556152343	-648.20068359375	1333.386840820312	100.2017364501951	-719.0860595703125	1091.109497070312	126.1427688598631	-599.2957763671875	1089.92333984375	131.3622894287108	-790.2730712890625	1055.0439453125	288.2886352539061	-537.2094116210938	1037.636352539062	296.2070312499999	-730.5450439453125	478.7250061035156	168.5921478271483	-590.7715454101562	480.1678161621094	156.8073120117186	-840.3176879882812	533.3413696289062	173.6968383789061	-486.7234191894531	525.1854858398438	166.6149291992187	-585.9713134765625	94.99249267578126	139.8027801513671	-729.9693603515625	98.15090942382814	160.0470733642577	-496.4197998046875	75.19374847412111	120.0748062133788	-816.566162109375	82.33016967773439	130.9728851318358	-522.114990234375	31.80150604248049	326.9853820800781	-797.540771484375	32.40946578979494	341.7450561523436	-544.1106567382812	38.92240905761719	61.55132675170892	-766.8367919921875	39.38362121582032	74.00847625732412	-1091.997192382812	1495.63818359375	216.8949890136716	-199.2063598632813	1505.594604492188	221.2907714843749	-1106.520629882812	1528.670288085938	147.2564392089841	-193.0150756835938	1537.929809570312	148.4896545410155	-1360.918823242188	1618.23046875	187.9403686523435	-1369.877319335938	1557.618041992188	138.6222686767576	58.38518142700193	1599.517822265625	177.9789733886718	68.30697631835936	1528.495727539062	151.7552185058593	-1469.042724609375	1606.0390625	133.6279296874997	168.1326599121093	1572.6943359375	161.1423797607421	
185	1.533333333333333	-729.4024047851562	1771.730224609375	308.0048828124998	-574.1569213867188	1767.536376953125	300.0455932617186	-736.26953125	1734.205932617188	179.6780700683592	-588.4089965820312	1733.303833007812	155.0280303955076	-650.676025390625	1575.4072265625	140.8900909423826	-646.945068359375	1504.624877929688	273.9729003906248	-803.3111572265625	1589.381958007812	167.0281982421873	-496.1893615722656	1593.691528320312	146.9176940917967	-644.4249877929688	1337.107788085938	319.7410583496093	-648.1724853515625	1333.368774414062	100.3111343383787	-719.0685424804688	1091.093627929688	126.2663955688475	-599.2879028320312	1089.930908203125	131.4592895507811	-790.25341796875	1055.02490234375	288.3755493164061	-537.1804809570312	1037.621948242188	296.3156127929686	-730.5326538085938	478.7236633300781	168.629669189453	-590.7570190429688	480.1742248535156	156.8488006591796	-840.3050537109375	533.3439331054688	173.738327026367	-486.7035522460938	525.1868286132812	166.6564483642577	-585.965087890625	94.99280548095705	139.8029022216796	-729.958984375	98.1547317504883	160.0528411865234	-496.419921875	75.19129180908205	120.0733947753906	-816.5596313476562	82.33052825927736	130.9807128906249	-522.1094970703125	31.81416320800783	326.9754943847656	-797.5528564453125	32.41059494018557	341.7437744140624	-544.0972900390625	38.92144012451173	61.56283950805658	-766.8433837890625	39.38837814331055	74.00204467773428	-1091.96630859375	1495.636840820312	216.9752349853513	-199.1935729980469	1505.628784179688	221.3716735839843	-1106.502319335938	1528.671020507812	147.3833770751951	-193.0254211425782	1537.937744140625	148.5704803466796	-1360.890014648438	1618.2294921875	188.0267639160154	-1369.842041015625	1557.628051757812	138.7703704833982	58.39282226562498	1599.562377929688	178.0727539062499	68.3336944580078	1528.55224609375	151.8895874023437	-1469.01708984375	1606.0556640625	133.7345581054685	168.127700805664	1572.768188476562	161.2637023925781	
186	1.541666666666667	-729.3943481445312	1771.739868164062	308.0848999023435	-574.1600341796875	1767.533569335938	300.1163330078123	-736.25927734375	1734.192260742188	179.7275085449217	-588.4010620117188	1733.299438476562	155.0873565673826	-650.6539306640625	1575.401489257812	140.9685974121092	-646.9112548828125	1504.631103515625	274.062774658203	-803.2879028320312	1589.377075195312	167.1049346923826	-496.1782531738281	1593.692016601562	146.978317260742	-644.3941650390625	1337.121826171875	319.863555908203	-648.1611328125	1333.351928710938	100.403594970703	-719.0427856445312	1091.091430664062	126.360023498535	-599.2627563476562	1089.94189453125	131.5393981933592	-790.2376708984375	1054.997680664062	288.4702148437498	-537.1425170898438	1037.609252929688	296.4179687499999	-730.5165405273438	478.7269592285156	168.6587982177733	-590.740966796875	480.1665954589844	156.8710174560546	-840.2805786132812	533.3429565429688	173.7620697021483	-486.6844177246094	525.1845092773438	166.706069946289	-585.9730224609375	95.00505828857423	139.7940826416015	-729.9666748046875	98.15515136718751	160.0521392822265	-496.4215698242188	75.1880340576172	120.0771408081054	-816.5652465820312	82.33116149902345	130.9653472900389	-522.1146240234375	31.81066894531252	326.9923095703124	-797.5513916015625	32.40092849731447	341.7375183105468	-544.1129150390625	38.92457580566407	61.55641937255853	-766.8383178710938	39.39154434204102	74.00363159179678	-1091.941040039062	1495.624145507812	217.0708160400388	-199.2006378173828	1505.669311523438	221.4838562011718	-1106.48681640625	1528.662109375	147.4597473144529	-192.986328125	1537.947265625	148.6714324951171	-1360.855346679688	1618.228149414062	188.1227264404294	-1369.827880859375	1557.644409179688	138.8636016845701	58.3940734863281	1599.617309570312	178.1735534667968	68.34886169433592	1528.596069335938	152.0180358886718	-1468.990356445312	1606.0751953125	133.8436737060544	168.1465454101562	1572.823852539062	161.3794708251953	
187	1.55	-729.3883666992188	1771.739990234375	308.1411132812498	-574.1427612304688	1767.533447265625	300.175811767578	-736.2378540039062	1734.180053710938	179.8016967773436	-588.3704833984375	1733.281372070312	155.1750335693357	-650.6326293945312	1575.384765625	141.0453186035155	-646.8987426757812	1504.651000976562	274.1480712890623	-803.273681640625	1589.377685546875	167.2035064697264	-496.1719360351562	1593.67919921875	147.0582733154295	-644.3721313476562	1337.134643554688	319.9727172851561	-648.1487426757812	1333.33984375	100.5046234130858	-719.0106201171875	1091.10888671875	126.4737243652342	-599.2430419921875	1089.943115234375	131.6455993652342	-790.2155151367188	1054.97021484375	288.5849609374998	-537.1254272460938	1037.604125976562	296.5297851562499	-730.5111083984375	478.722900390625	168.7061767578124	-590.736083984375	480.1796875	156.9068603515624	-840.2710571289062	533.3460083007812	173.8095397949217	-486.6758117675781	525.1668701171875	166.7413635253905	-585.9823608398438	94.99783325195314	139.7848205566405	-729.959716796875	98.15524291992189	160.0556640624999	-496.4253845214844	75.19567871093751	120.0873413085937	-816.556884765625	82.32800292968751	130.9745635986327	-522.10986328125	31.81146049499514	326.9848937988281	-797.544677734375	32.4090042114258	341.7504577636718	-544.1190795898438	38.93155670166016	61.55804061889642	-766.8343505859375	39.38772583007813	74.00215148925771	-1091.926879882812	1495.614990234375	217.1628265380857	-199.1924743652344	1505.721801757812	221.5949249267577	-1106.470825195312	1528.644287109375	147.5418853759763	-192.9681549072266	1537.947875976562	148.7611999511718	-1360.821044921875	1618.224609375	188.2254943847654	-1369.807983398438	1557.649047851562	138.972717285156	58.40802383422849	1599.660888671875	178.275177001953	68.38547515869139	1528.6279296875	152.1517333984374	-1468.960815429688	1606.074951171875	133.9558258056638	168.1473541259765	1572.8720703125	161.5132751464843	
